<svg width="24" height="22" viewBox="0 0 24 22" fill="none" xmlns="http://www.w3.org/2000/svg">
<path d="M17.4 -3.05176e-05C15.312 -3.05176e-05 13.308 0.971087 12 2.50569C10.692 0.971087 8.688 -3.05176e-05 6.6 -3.05176e-05C2.904 -3.05176e-05 0 2.90133 0 6.59398C0 11.1259 4.08 14.8185 10.26 20.4294L12 22L13.74 20.4174C19.92 14.8185 24 11.1259 24 6.59398C24 2.90133 21.096 -3.05176e-05 17.4 -3.05176e-05ZM12.12 18.643L12 18.7629L11.88 18.643C6.168 13.4757 2.4 10.0588 2.4 6.59398C2.4 4.19616 4.2 2.39779 6.6 2.39779C8.448 2.39779 11.364 3.58471 12 5.22722C12.624 3.58471 15.552 2.39779 17.4 2.39779C19.8 2.39779 21.6 4.19616 21.6 6.59398C21.6 10.0588 17.832 13.4757 12.12 18.643Z" fill="#DA9352"/>
</svg>
