<svg width="21" height="23" viewBox="0 0 21 23" fill="none" xmlns="http://www.w3.org/2000/svg">
<path d="M17.0914 11.999C17.1152 10.3316 18.1102 8.75385 19.6886 7.8805C18.6929 6.6006 17.025 5.78911 15.2898 5.74025C13.4391 5.56541 11.6448 6.73696 10.7017 6.73696C9.74038 6.73696 8.28831 5.75761 6.72468 5.78656C4.68655 5.84582 2.7865 6.88871 1.79491 8.49239C-0.336623 11.8138 1.25331 16.6951 3.29514 19.3798C4.31671 20.6944 5.51063 22.1629 7.07285 22.1109C8.60158 22.0538 9.17254 21.2335 11.0178 21.2335C12.846 21.2335 13.3817 22.1109 14.9756 22.0778C16.616 22.0538 17.6495 20.7573 18.6353 19.4302C19.3693 18.4934 19.9341 17.4582 20.3088 16.3626C18.381 15.6288 17.0936 13.8828 17.0914 11.999Z" fill="#282828"/>
<path d="M14.0807 3.97463C14.9751 3.00829 15.4158 1.76623 15.3091 0.512207C13.9426 0.641376 12.6804 1.22915 11.7739 2.15841C10.8874 3.06635 10.4261 4.28656 10.5133 5.49265C11.8803 5.50531 13.2241 4.93347 14.0807 3.97463Z" fill="#282828"/>
</svg>
