<svg width="12" height="6" viewBox="0 0 12 6" fill="none" xmlns="http://www.w3.org/2000/svg">
<path d="M11 1L6 5L1 1H11Z" fill="#D9904E"/>
<path d="M11 1L11.1874 1.23426L11.8552 0.7H11V1ZM6 5L5.81259 5.23426C5.92216 5.32191 6.07784 5.32191 6.18741 5.23426L6 5ZM1 1V0.7H0.144766L0.812591 1.23426L1 1ZM10.8126 0.765739L5.81259 4.76574L6.18741 5.23426L11.1874 1.23426L10.8126 0.765739ZM6.18741 4.76574L1.18741 0.765739L0.812591 1.23426L5.81259 5.23426L6.18741 4.76574ZM1 1.3H11V0.7H1V1.3Z" fill="#D9904E"/>
</svg>
