<svg width="22" height="23" viewBox="0 0 22 23" fill="none" xmlns="http://www.w3.org/2000/svg">
<g filter="url(#filter0_ii_240_2482)">
<path d="M0.831928 0.973384C0.560396 1.23204 0.399902 1.63346 0.399902 2.15329V20.7261C0.399902 21.2467 0.560396 21.6473 0.831928 21.906L0.900977 21.9664L12.4611 11.5623V11.4397V11.3171L0.900977 0.912079L0.831928 0.973384Z" fill="url(#paint0_linear_240_2482)"/>
<path d="M16.3139 15.0315L12.4612 11.5623V11.4397V11.3171L16.3149 7.84876L16.4017 7.89326L20.9673 10.2279C22.2708 10.8947 22.2708 11.9856 20.9673 12.6532L16.4017 14.9878L16.3139 15.0315Z" fill="url(#paint1_linear_240_2482)"/>
<g filter="url(#filter1_i_240_2482)">
<path d="M16.4015 14.9871L12.4601 11.4398L0.831788 21.9061C1.26101 22.3159 1.9711 22.3663 2.77077 21.9581L16.4015 14.9871Z" fill="url(#paint2_linear_240_2482)"/>
</g>
<path d="M16.4015 7.89249L2.77077 0.922247C1.9711 0.51327 1.26101 0.564497 0.831788 0.974314L12.461 11.4406L16.4015 7.89249Z" fill="url(#paint3_linear_240_2482)"/>
</g>
<defs>
<filter id="filter0_ii_240_2482" x="0.399902" y="0.640015" width="21.5452" height="21.6" filterUnits="userSpaceOnUse" color-interpolation-filters="sRGB">
<feFlood flood-opacity="0" result="BackgroundImageFix"/>
<feBlend mode="normal" in="SourceGraphic" in2="BackgroundImageFix" result="shape"/>
<feColorMatrix in="SourceAlpha" type="matrix" values="0 0 0 0 0 0 0 0 0 0 0 0 0 0 0 0 0 0 127 0" result="hardAlpha"/>
<feOffset dy="-0.12"/>
<feComposite in2="hardAlpha" operator="arithmetic" k2="-1" k3="1"/>
<feColorMatrix type="matrix" values="0 0 0 0 0 0 0 0 0 0 0 0 0 0 0 0 0 0 0.12 0"/>
<feBlend mode="normal" in2="shape" result="effect1_innerShadow_240_2482"/>
<feColorMatrix in="SourceAlpha" type="matrix" values="0 0 0 0 0 0 0 0 0 0 0 0 0 0 0 0 0 0 127 0" result="hardAlpha"/>
<feOffset dy="0.12"/>
<feComposite in2="hardAlpha" operator="arithmetic" k2="-1" k3="1"/>
<feColorMatrix type="matrix" values="0 0 0 0 1 0 0 0 0 1 0 0 0 0 1 0 0 0 0.25 0"/>
<feBlend mode="normal" in2="effect1_innerShadow_240_2482" result="effect2_innerShadow_240_2482"/>
</filter>
<filter id="filter1_i_240_2482" x="0.831787" y="11.4398" width="15.5696" height="10.8003" filterUnits="userSpaceOnUse" color-interpolation-filters="sRGB">
<feFlood flood-opacity="0" result="BackgroundImageFix"/>
<feBlend mode="normal" in="SourceGraphic" in2="BackgroundImageFix" result="shape"/>
<feColorMatrix in="SourceAlpha" type="matrix" values="0 0 0 0 0 0 0 0 0 0 0 0 0 0 0 0 0 0 127 0" result="hardAlpha"/>
<feOffset dy="-0.12"/>
<feComposite in2="hardAlpha" operator="arithmetic" k2="-1" k3="1"/>
<feColorMatrix type="matrix" values="0 0 0 0 0 0 0 0 0 0 0 0 0 0 0 0 0 0 0.08 0"/>
<feBlend mode="normal" in2="shape" result="effect1_innerShadow_240_2482"/>
</filter>
<linearGradient id="paint0_linear_240_2482" x1="11.4364" y1="1.95678" x2="-2.57906" y2="17.5295" gradientUnits="userSpaceOnUse">
<stop stop-color="#00A0FF"/>
<stop offset="0.0066" stop-color="#00A1FF"/>
<stop offset="0.2601" stop-color="#00BEFF"/>
<stop offset="0.5122" stop-color="#00D2FF"/>
<stop offset="0.7604" stop-color="#00DFFF"/>
<stop offset="1" stop-color="#00E3FF"/>
</linearGradient>
<linearGradient id="paint1_linear_240_2482" x1="22.6641" y1="11.4397" x2="0.086987" y2="11.4397" gradientUnits="userSpaceOnUse">
<stop stop-color="#FFE000"/>
<stop offset="0.4087" stop-color="#FFBD00"/>
<stop offset="0.7754" stop-color="#FFA500"/>
<stop offset="1" stop-color="#FF9C00"/>
</linearGradient>
<linearGradient id="paint2_linear_240_2482" x1="14.261" y1="13.3662" x2="-4.7457" y2="34.4848" gradientUnits="userSpaceOnUse">
<stop stop-color="#FF3A44"/>
<stop offset="1" stop-color="#C31162"/>
</linearGradient>
<linearGradient id="paint3_linear_240_2482" x1="-2.09684" y1="-5.20838" x2="6.3902" y2="4.22166" gradientUnits="userSpaceOnUse">
<stop stop-color="#32A071"/>
<stop offset="0.0685" stop-color="#2DA771"/>
<stop offset="0.4762" stop-color="#15CF74"/>
<stop offset="0.8009" stop-color="#06E775"/>
<stop offset="1" stop-color="#00F076"/>
</linearGradient>
</defs>
</svg>
