<svg width="22" height="22" viewBox="0 0 22 22" fill="none" xmlns="http://www.w3.org/2000/svg">
<path d="M11.0018 19.1368C8.78779 19.1368 8.52679 19.1251 7.66279 19.0873C6.98903 19.0652 6.32398 18.9282 5.69629 18.6823C5.15916 18.4733 4.67136 18.1548 4.26387 17.7472C3.85639 17.3396 3.53812 16.8516 3.32929 16.3144C3.09287 15.6845 2.96535 15.0189 2.95219 14.3461C2.90179 13.4839 2.90179 13.2013 2.90179 11.0044C2.90179 8.78412 2.91349 8.52492 2.95219 7.66542C2.96564 6.99359 3.09315 6.32893 3.32929 5.69982C3.53788 5.16192 3.85636 4.67344 4.26439 4.26557C4.67241 3.8577 5.16102 3.53941 5.69899 3.33102C6.32777 3.0936 6.99261 2.96575 7.66459 2.95302C8.52409 2.90442 8.80669 2.90442 11.0018 2.90442C13.2338 2.90442 13.4903 2.91612 14.3408 2.95302C15.014 2.96562 15.6818 3.09342 16.3118 3.33102C16.8496 3.53965 17.3381 3.85802 17.7461 4.26586C18.1541 4.6737 18.4727 5.16206 18.6815 5.69982C18.9218 6.33882 19.0505 7.01382 19.0604 7.69512C19.1108 8.55732 19.1108 8.83902 19.1108 11.035C19.1108 13.231 19.0982 13.519 19.0604 14.3713C19.0469 15.0447 18.9191 15.7109 18.6824 16.3414C18.473 16.879 18.1542 17.3672 17.7461 17.775C17.338 18.1828 16.8495 18.5013 16.3118 18.7102C15.6818 18.946 15.0167 19.0738 14.3444 19.0873C13.4849 19.1368 13.2032 19.1368 11.0018 19.1368ZM10.9712 4.32912C8.76979 4.32912 8.54119 4.33992 7.68169 4.37862C7.16838 4.38533 6.66001 4.48 6.17869 4.65852C5.82763 4.79308 5.50866 4.99972 5.24235 5.2651C4.97604 5.53049 4.76829 5.84873 4.63249 6.19932C4.45249 6.68532 4.35799 7.19922 4.35259 7.71762C4.30489 8.58972 4.30489 8.81832 4.30489 11.0044C4.30489 13.1644 4.31299 13.4263 4.35259 14.293C4.36069 14.806 4.45519 15.3145 4.63249 15.796C4.90789 16.5043 5.46949 17.0641 6.17959 17.3359C6.66029 17.5156 7.16856 17.6103 7.68169 17.6158C8.55289 17.6662 8.7824 17.6662 10.9712 17.6662C13.1789 17.6662 13.4075 17.6554 14.2598 17.6158C14.7732 17.6096 15.2816 17.5149 15.7628 17.3359C16.112 17.2003 16.4291 16.9936 16.6941 16.7288C16.959 16.464 17.166 16.1469 17.3018 15.7978C17.4818 15.3118 17.5763 14.797 17.5817 14.2786H17.5916C17.6303 13.4182 17.6303 13.1887 17.6303 10.99C17.6303 8.79132 17.6204 8.56002 17.5817 7.70052C17.5736 7.18793 17.4789 6.6804 17.3018 6.19932C17.1663 5.84971 16.9595 5.53215 16.6945 5.26687C16.4296 5.00159 16.1122 4.79441 15.7628 4.65852C15.2813 4.47852 14.7728 4.38492 14.2598 4.37862C13.3895 4.32912 13.1618 4.32912 10.9712 4.32912ZM11.0018 15.1615C10.1788 15.1621 9.37415 14.9185 8.68959 14.4617C8.00503 14.0049 7.47132 13.3553 7.15597 12.5951C6.84062 11.835 6.75778 10.9983 6.91795 10.1911C7.07811 9.38384 7.47408 8.64223 8.05576 8.06003C8.63745 7.47784 9.37873 7.08124 10.1858 6.92037C10.9929 6.75951 11.8296 6.84162 12.5901 7.15632C13.3505 7.47101 14.0006 8.00416 14.458 8.68832C14.9154 9.37249 15.1596 10.1769 15.1598 10.9999C15.1584 12.1026 14.72 13.1597 13.9406 13.9398C13.1612 14.7198 12.1045 15.1591 11.0018 15.1615ZM11.0018 8.29812C10.4678 8.29812 9.94577 8.45647 9.50175 8.75315C9.05774 9.04983 8.71168 9.47151 8.50732 9.96487C8.30296 10.4582 8.24949 11.0011 8.35367 11.5249C8.45785 12.0486 8.71501 12.5297 9.09261 12.9073C9.47021 13.2849 9.9513 13.5421 10.4751 13.6462C10.9988 13.7504 11.5417 13.697 12.035 13.4926C12.5284 13.2882 12.9501 12.9422 13.2468 12.4982C13.5434 12.0541 13.7018 11.5321 13.7018 10.9981C13.7001 10.2825 13.4151 9.59676 12.9091 9.09077C12.4032 8.58478 11.7174 8.29978 11.0018 8.29812ZM15.3218 7.65642C15.1944 7.65595 15.0683 7.63038 14.9508 7.58119C14.8333 7.532 14.7266 7.46013 14.6368 7.36971C14.4555 7.18709 14.3542 6.93993 14.3552 6.68262C14.3561 6.42531 14.4593 6.17891 14.6419 5.99764C14.8245 5.81637 15.0717 5.71506 15.329 5.71602C15.5863 5.71697 15.8327 5.82011 16.014 6.00273C16.1952 6.18535 16.2966 6.43251 16.2956 6.68982C16.2946 6.94713 16.1915 7.19353 16.0089 7.3748C15.8263 7.55607 15.5791 7.65737 15.3218 7.65642Z" fill="#D9904E"/>
</svg>
