<svg width="21" height="24" viewBox="0 0 21 24" fill="none" xmlns="http://www.w3.org/2000/svg">
<path d="M15.0133 1.8369L14.4825 1H11.2704V8.53754L11.2595 15.9C11.265 15.9547 11.2704 16.0149 11.2704 16.0696C11.2704 17.913 9.77111 19.4172 7.92158 19.4172C6.07204 19.4172 4.57272 17.9184 4.57272 16.0696C4.57272 14.2263 6.07204 12.722 7.92158 12.722C8.30461 12.722 8.67671 12.7931 9.02144 12.9135V9.23769C8.66577 9.17752 8.29914 9.1447 7.92158 9.1447C4.1076 9.15017 0.999512 12.2571 0.999512 16.0751C0.999512 19.8931 4.1076 23 7.92705 23C11.7465 23 14.8546 19.8931 14.8546 16.0751V7.31775C16.239 8.70164 18.0283 10.0527 20.0092 10.4848V6.727C17.8587 5.77524 15.7192 2.9637 15.0133 1.8369Z" stroke="#D9904E" stroke-width="1.25714"/>
</svg>
